<?xml version="1.0" encoding="UTF-8"?>
<svg version="1.1" xmlns="http://www.w3.org/2000/svg" width="1080" height="1080">
<path d="M0 0 C1.35511079 -0.00330308 2.71022061 -0.00702958 4.06532919 -0.01114148 C7.77921419 -0.02111925 11.49308302 -0.02487144 15.20697951 -0.02753079 C19.2167693 -0.03144646 23.22654645 -0.04102392 27.23632812 -0.04974365 C36.91544313 -0.06947301 46.59455913 -0.07957003 56.27368921 -0.08847144 C60.8380553 -0.09286034 65.40242025 -0.09822561 69.96678543 -0.10346031 C85.15072832 -0.12046946 100.3346705 -0.13496185 115.51862144 -0.14220905 C119.45574316 -0.14411877 123.39286488 -0.14603913 127.32998657 -0.147995 C128.30847166 -0.14847874 129.28695675 -0.14896248 130.2950929 -0.14946087 C146.13265584 -0.15775457 161.9701431 -0.18308173 177.80767302 -0.21557567 C194.08806688 -0.24870439 210.36842235 -0.26666308 226.64885008 -0.26985329 C235.78142406 -0.27201307 244.91388768 -0.2806834 254.04642868 -0.30631447 C261.82686831 -0.32810107 269.60717075 -0.33603298 277.38763742 -0.32634769 C281.35132096 -0.32182584 285.31472194 -0.32356445 289.27836609 -0.34310913 C326.76142283 -0.51776568 326.76142283 -0.51776568 342.05703735 7.83467102 C342.70672485 8.17498352 343.35641235 8.51529602 344.02578735 8.86592102 C364.2092376 19.77053559 378.96538355 36.95859117 385.91906309 58.8437252 C389.12353596 70.77909892 389.30814729 82.36045385 389.25247192 94.65351868 C389.25708903 96.89172075 389.26344735 99.12991979 389.2713809 101.36811256 C389.28798593 107.47661989 389.27986808 113.58487531 389.26743603 119.69338322 C389.25928646 125.6178303 389.26999461 131.54223652 389.28002549 137.46667415 C389.30102258 150.32154498 389.29928927 163.17633599 389.28770984 176.0312143 C389.27762658 187.28107705 389.27503059 198.53091063 389.27980042 209.78077698 C389.28010596 210.52854124 389.2804115 211.2763055 389.28072629 212.04672928 C389.28197176 215.0825513 389.28324537 218.1183733 389.28456535 221.15419529 C389.29678683 249.60183086 389.28573058 278.04941577 389.26417776 306.49704352 C389.24519695 331.74177462 389.24689553 356.986425 389.26602173 382.2311554 C389.28746482 410.62851639 389.2959199 439.02583264 389.28357267 467.42320061 C389.28228991 470.45332208 389.28103854 473.48344357 389.27980042 476.51356506 C389.27948411 477.25959593 389.2791678 478.00562679 389.2788419 478.77426465 C389.27430214 490.01391519 389.27959417 501.25353328 389.28971863 512.49317932 C389.30117966 525.27995358 389.29824538 538.06663592 389.27659565 550.8533988 C389.26591967 557.37297334 389.2619236 563.89241824 389.27519226 570.41199493 C389.28717029 576.38795268 389.28046447 582.36359641 389.25928205 588.33952594 C389.25483889 590.49340785 389.25703034 592.64731667 389.2667852 594.80118108 C389.33094001 610.15220848 388.59309438 625.65907276 381.05703735 639.45967102 C380.71672485 640.10935852 380.37641235 640.75904602 380.02578735 641.42842102 C369.03877959 661.76437357 352.0809008 675.74157032 330.38177013 683.32191563 C316.17838113 687.22372123 301.6854348 686.71242051 287.07746184 686.65541065 C283.06857399 686.64419194 279.05974176 686.65627893 275.05085754 686.66525269 C267.22045319 686.67911262 259.39021121 686.67168347 251.55981473 686.6565771 C242.42520616 686.63963182 233.29063707 686.64293785 224.15601762 686.64667118 C207.85061202 686.65253623 191.54528388 686.63843024 175.23989868 686.61372375 C159.44592385 686.58979515 143.65205245 686.58272586 127.85806274 686.59321594 C110.62244433 686.60464316 93.38687364 686.60653386 76.15125579 686.59211785 C74.31114591 686.59059214 72.47103602 686.58907178 70.63092613 686.58755684 C69.27316869 686.58642012 69.27316869 686.58642012 67.88798181 686.58526043 C61.53191503 686.58053246 55.17586967 686.58235836 48.81980324 686.58662224 C41.06842932 686.59156519 33.31715287 686.58549192 25.56580118 686.56572794 C21.61665728 686.55590422 17.6676613 686.55069723 13.71850967 686.55862045 C10.09459863 686.56574207 6.4709844 686.55872368 2.84711214 686.54101682 C0.93459556 686.53513645 -0.97794923 686.54373085 -2.89045209 686.55306333 C-25.51543035 686.38942324 -46.24506096 678.16810177 -62.28671265 662.27217102 C-82.29029039 641.60351268 -86.88999565 618.39950293 -86.76339722 590.60322571 C-86.76801527 588.37312286 -86.77437422 586.14302306 -86.78230619 583.91292953 C-86.79889823 577.83141484 -86.79079939 571.75015345 -86.77836132 565.66863823 C-86.77020712 559.76880674 -86.78092265 553.86902756 -86.79095078 547.96920335 C-86.81194047 535.16890952 -86.81021755 522.36869588 -86.79863513 509.56839454 C-86.78854932 498.36625125 -86.78595706 487.16413726 -86.79072571 475.96199036 C-86.79103125 475.21721265 -86.79133679 474.47243495 -86.79165159 473.70508823 C-86.79289706 470.68134266 -86.79417068 467.65759711 -86.79549064 464.63385157 C-86.80771037 436.30308014 -86.79665867 407.97235959 -86.77510305 379.64159602 C-86.75612244 354.50410418 -86.75782102 329.36669341 -86.77694702 304.22920227 C-86.79839309 275.94828677 -86.80684354 247.66741619 -86.79449797 219.38649368 C-86.79321521 216.36844636 -86.79196384 213.35039903 -86.79072571 210.33235168 C-86.7904094 209.58930105 -86.79009309 208.84625041 -86.78976719 208.08068308 C-86.78522866 196.88908824 -86.79051716 185.69752599 -86.80064392 174.50593567 C-86.81210834 161.77301287 -86.8091635 149.04018238 -86.78752095 136.307271 C-86.7770383 129.81590667 -86.77284125 123.32470647 -86.78611755 116.83334351 C-86.79810485 110.88204526 -86.79137476 104.9310621 -86.77020735 98.97979212 C-86.76576805 96.83601645 -86.76794673 94.69221374 -86.7777105 92.54845572 C-86.89509468 64.61541515 -80.13254131 42.83467096 -60.75546265 22.27217102 C-43.70193673 6.24264435 -22.89354318 -0.0033711 0 0 Z " fill="#000000" transform="translate(389.2554626464844,196.8528289794922)"/>
<path d="M0 0 C1.6204044 -0.00435211 3.24080674 -0.00953692 4.86120605 -0.01548767 C9.2455848 -0.02883549 13.62987712 -0.02946103 18.01427221 -0.02692437 C21.68208254 -0.02585175 25.34987559 -0.03074548 29.01768219 -0.03552979 C37.67488731 -0.04661048 46.33204904 -0.04707054 54.98925781 -0.04101562 C63.90292761 -0.03497694 72.81643952 -0.04728749 81.73008239 -0.06858569 C89.39913652 -0.08623236 97.06814053 -0.09219821 104.73721421 -0.08894795 C109.3104883 -0.08713977 113.88364976 -0.08972462 118.45690536 -0.10366249 C122.75963236 -0.11628614 127.06211419 -0.11425407 131.36483765 -0.1012516 C132.93772593 -0.09889609 134.51063171 -0.10158349 136.08349991 -0.10987473 C149.72987618 -0.1765851 159.28911236 2.31870804 171.01220703 9.2746582 C172.62095703 10.2027832 172.62095703 10.2027832 174.26220703 11.1496582 C178.05963936 14.08403773 180.98839793 17.5673854 184.01220703 21.2746582 C185.02347656 22.43674805 185.02347656 22.43674805 186.05517578 23.62231445 C188.23406451 26.5753393 189.42706702 29.3381287 190.69970703 32.7746582 C191.32425781 34.42981445 191.32425781 34.42981445 191.96142578 36.1184082 C193.8490204 41.78820915 194.16072286 47.02553193 194.15937805 52.97518921 C194.16305474 53.85092516 194.16673143 54.7266611 194.17051953 55.6289345 C194.18153232 58.56341998 194.18539619 61.49787002 194.18920898 64.43237305 C194.19547564 66.53682568 194.20212262 68.64127721 194.2091217 70.74572754 C194.2301472 77.65900911 194.24052533 84.57229086 194.25048828 91.4855957 C194.25453694 93.86915727 194.2586539 96.25271873 194.26283836 98.63628006 C194.28188975 109.83987031 194.29611873 121.04345399 194.30445033 132.24705732 C194.31421128 145.15821042 194.34050128 158.06919155 194.38095123 170.98028409 C194.41117483 180.97204554 194.42592528 190.96375789 194.42923135 200.95556414 C194.43157543 206.91685852 194.44045188 212.87796919 194.46569252 218.83921432 C194.48908638 224.45516457 194.49316111 230.07081163 194.48293114 235.6867981 C194.48243835 237.73813515 194.48868214 239.78948769 194.50248718 241.84077835 C194.68122197 269.99463784 194.68122197 269.99463784 188.4464159 277.04535484 C187.97312697 277.45102495 187.49983805 277.85669506 187.01220703 278.2746582 C186.24602573 279.67165308 185.51914815 281.09064983 184.82470703 282.5246582 C179.92262834 291.48763049 171.10319443 297.00189412 162.01220703 301.2746582 C160.69220703 301.2746582 159.37220703 301.2746582 158.01220703 301.2746582 C158.01220703 301.9346582 158.01220703 302.5946582 158.01220703 303.2746582 C153.72625765 304.32298285 149.56788561 304.4165281 145.18243408 304.40596008 C144.40047 304.4080758 143.61850591 304.41019151 142.81284595 304.41237134 C140.19601727 304.41835651 137.57923703 304.41737224 134.96240234 304.41650391 C133.0846651 304.4195364 131.2069286 304.42305811 129.32919312 304.42703247 C125.28647022 304.43491513 121.24375612 304.44006401 117.20102692 304.44332314 C110.80478727 304.44923921 104.40860308 304.46578539 98.01239014 304.48466492 C95.8214455 304.49100214 93.63050083 304.49732777 91.43955612 304.50364208 C90.34238439 304.50680789 89.24521266 304.5099737 88.1147933 304.51323545 C73.22578998 304.55529054 58.33681268 304.58828582 43.44775391 304.60058594 C33.4017602 304.60897033 23.35590408 304.63147441 13.3099792 304.6699416 C7.99612009 304.68968794 2.68246657 304.70211148 -2.63143158 304.69710732 C-7.63184828 304.69245561 -12.6318754 304.70629506 -17.63221359 304.73411942 C-19.46351467 304.7410221 -21.29485611 304.74116771 -23.12615585 304.73391914 C-37.53624886 304.35260674 -37.53624886 304.35260674 -49.81370163 310.99524403 C-55.64612019 317.22420917 -57.4343532 323.07327708 -57.38652039 331.42416382 C-57.39316721 332.33583899 -57.39981404 333.24751416 -57.40666229 334.18681586 C-57.42528831 337.23623023 -57.42268723 340.28525209 -57.42016602 343.3347168 C-57.4291834 345.52277175 -57.43951056 347.71082164 -57.4510498 349.89886475 C-57.47864856 355.83634993 -57.48790828 361.77373933 -57.49390388 367.71128035 C-57.50328 373.91731029 -57.5294828 380.12326848 -57.5539093 386.32925415 C-57.595115 397.41199486 -57.62356534 408.49471919 -57.64527897 419.57751401 C-57.66512335 429.63690785 -57.69187326 439.69625744 -57.7253418 449.75561523 C-57.72754062 450.41715191 -57.72973945 451.07868859 -57.7320049 451.76027183 C-57.7430747 455.07911219 -57.75427419 458.3979521 -57.76552141 461.71679187 C-57.85840292 489.23604157 -57.93006765 516.75531389 -57.98779297 544.2746582 C-63.53776267 544.44857254 -69.08612437 544.57513035 -74.63818359 544.65917969 C-76.52388153 544.69423764 -78.40939116 544.74190011 -80.29443359 544.80273438 C-97.99215725 545.35929598 -97.99215725 545.35929598 -103.26904297 540.87231445 C-105.98779297 537.83650791 -105.98779297 537.83650791 -105.98779297 535.2746582 C-106.64779297 535.2746582 -107.30779297 535.2746582 -107.98779297 535.2746582 C-109.19503944 531.65291879 -109.13262647 528.34160569 -109.12823486 524.57150269 C-109.13269155 523.38274385 -109.13269155 523.38274385 -109.13723826 522.16996968 C-109.145933 519.50547374 -109.14743418 516.84102269 -109.14892578 514.17651367 C-109.15355351 512.26951501 -109.15857811 510.36251728 -109.16397095 508.45552063 C-109.17710372 503.26724327 -109.18354194 498.07897886 -109.18798161 492.89068747 C-109.1909117 489.64878382 -109.19501645 486.40688371 -109.19948578 483.16498184 C-109.21316474 473.0207241 -109.22282871 462.87647446 -109.22668767 452.73220813 C-109.23116566 441.02485236 -109.2486999 429.3176135 -109.27768826 417.61029327 C-109.29931768 408.56048305 -109.30939267 399.51070569 -109.31072879 390.46086991 C-109.31177617 385.05644688 -109.31766943 379.65213369 -109.3355484 374.24773788 C-109.35205017 369.16044319 -109.3541743 364.07334063 -109.34540939 358.98602867 C-109.34464007 357.12245989 -109.34896782 355.2588807 -109.35886765 353.39533806 C-109.44539539 336.08701982 -109.44539539 336.08701982 -105.98779297 328.2746582 C-105.63458984 327.37875977 -105.28138672 326.48286133 -104.91748047 325.55981445 C-98.34762347 311.71444915 -87.58969212 304.4315067 -73.98779297 298.2746582 C-69.98779297 297.2746582 -69.98779297 297.2746582 -58.98779297 297.2746582 C-58.98779297 285.0646582 -58.98779297 272.8546582 -58.98779297 260.2746582 C-62.28779297 260.2746582 -65.58779297 260.2746582 -68.98779297 260.2746582 C-72.37060547 259.6184082 -72.37060547 259.6184082 -75.11279297 258.7746582 C-76.04349609 258.4962207 -76.97419922 258.2177832 -77.93310547 257.9309082 C-78.95017578 257.60606445 -78.95017578 257.60606445 -79.98779297 257.2746582 C-79.98779297 256.6146582 -79.98779297 255.9546582 -79.98779297 255.2746582 C-81.13248047 255.0890332 -81.13248047 255.0890332 -82.30029297 254.8996582 C-84.98779297 254.2746582 -84.98779297 254.2746582 -87.98779297 252.2746582 C-87.98779297 251.6146582 -87.98779297 250.9546582 -87.98779297 250.2746582 C-88.68904297 250.0890332 -89.39029297 249.9034082 -90.11279297 249.7121582 C-97.14304056 246.19703441 -101.60008908 238.12101266 -104.98779297 231.2746582 C-105.31881043 230.61849707 -105.6498279 229.96233593 -105.9908762 229.28629112 C-110.11961236 219.7965514 -109.54321088 210.15538372 -109.48950195 200.01147461 C-109.49328981 197.96872588 -109.49879368 195.92597972 -109.50587463 193.88323975 C-109.51978025 188.36296003 -109.50869621 182.84299366 -109.49216342 177.32273149 C-109.47827198 171.53818065 -109.48477723 165.75364722 -109.48829651 159.96908569 C-109.49099409 150.2634376 -109.4775574 140.55791351 -109.4543457 130.85229492 C-109.42769389 119.63052742 -109.42600484 108.40896659 -109.43773407 97.18717825 C-109.44850758 86.3829513 -109.44233102 75.57879911 -109.42817879 64.77457809 C-109.42241983 60.17898161 -109.42250086 55.58343985 -109.42724419 50.98784256 C-109.43201194 45.58196159 -109.42192055 40.17630747 -109.40028954 34.77046967 C-109.39472044 32.78589773 -109.39425749 30.80130399 -109.3992424 28.8167305 C-109.40518859 26.11036594 -109.39270327 23.40469665 -109.37547302 20.69839478 C-109.38148307 19.91114505 -109.38749311 19.12389533 -109.39368528 18.31278956 C-109.34109469 13.77826571 -108.77588093 10.88638623 -105.98779297 7.2746582 C-102.09863165 3.77441301 -99.21419651 2.14460646 -93.9753418 2.16113281 C-93.17473831 2.16120834 -92.37413483 2.16128387 -91.54927063 2.16136169 C-90.26006966 2.16910362 -90.26006966 2.16910362 -88.94482422 2.17700195 C-88.06122726 2.1784169 -87.17763031 2.17983185 -86.26725769 2.18128967 C-83.44490169 2.18688751 -80.622625 2.19943959 -77.80029297 2.2121582 C-75.88688266 2.21717348 -73.9734711 2.22173634 -72.06005859 2.22583008 C-67.36924824 2.23600537 -62.67860939 2.25558123 -57.98779297 2.2746582 C-57.65779297 12.5046582 -57.32779297 22.7346582 -56.98779297 33.2746582 C-55.33779297 29.9746582 -53.68779297 26.6746582 -51.98779297 23.2746582 C-47.48521236 17.26061061 -42.01264209 11.76376147 -35.98779297 7.2746582 C-34.66779297 7.2746582 -33.34779297 7.2746582 -31.98779297 7.2746582 C-31.98779297 6.6146582 -31.98779297 5.9546582 -31.98779297 5.2746582 C-30.83279297 4.8209082 -29.67779297 4.3671582 -28.48779297 3.8996582 C-27.83810547 3.64442383 -27.18841797 3.38918945 -26.51904297 3.1262207 C-17.62378158 0.13367906 -9.30196389 -0.01651766 0 0 Z " fill="#737377" transform="translate(497.98779296875,267.725341796875)"/>
<path d="M0 0 C0.33 0 0.66 0 1 0 C1.04560783 28.72296899 1.08101038 57.44593371 1.10213066 86.16893177 C1.10463213 89.55858478 1.10722076 92.94823772 1.10986328 96.33789062 C1.1103879 97.01272032 1.11091252 97.68755002 1.11145304 98.3828291 C1.12015984 109.31503423 1.13593133 120.24721836 1.15430559 131.17941102 C1.17299699 142.39367145 1.18396537 153.60792137 1.18817699 164.82219815 C1.19078886 171.12242014 1.19694583 177.42259447 1.21146011 183.72280121 C1.22500219 189.64883296 1.22922948 195.57479729 1.22621536 201.50084305 C1.22676704 203.67934409 1.23076449 205.8578473 1.23841095 208.03633499 C1.24831935 211.004023 1.24598387 213.97145435 1.24050903 216.93914795 C1.24633472 217.8068509 1.2521604 218.67455385 1.25816262 219.56855083 C1.25418052 220.36376242 1.25019842 221.15897401 1.24609566 221.97828293 C1.2468551 222.6632984 1.24761454 223.34831388 1.24839699 224.0540874 C0.9542576 226.35834051 0.13298553 227.98786452 -1 230 C-1.66 230 -2.32 230 -3 230 C-3 230.66 -3 231.32 -3 232 C-8.93576017 237.53104925 -8.93576017 237.53104925 -13 238 C-13 238.66 -13 239.32 -13 240 C-17.32147273 240.82320033 -21.4144953 241.13309263 -25.81111145 241.15390015 C-26.47142339 241.1582824 -27.13173533 241.16266465 -27.81205672 241.1671797 C-30.01118218 241.18046921 -32.21026767 241.1867241 -34.40942383 241.19287109 C-35.99174679 241.20077961 -37.57406799 241.20904902 -39.15638733 241.21765137 C-44.33991801 241.24377663 -49.52345639 241.25916576 -54.70703125 241.2734375 C-56.49545483 241.27880038 -58.28387837 241.2841779 -60.07230186 241.28956985 C-67.51253085 241.3111813 -74.95275775 241.32991754 -82.39301014 241.34119225 C-93.0377288 241.35743269 -103.68208263 241.39063264 -114.32666379 241.44759309 C-121.8224048 241.48633094 -129.31804836 241.50582926 -136.81388682 241.51111281 C-141.28611798 241.51475991 -145.75795915 241.52671349 -150.23008156 241.55921555 C-154.43848666 241.58936552 -158.64626713 241.59558361 -162.85475731 241.58383179 C-164.39422311 241.58361166 -165.93371851 241.59186659 -167.4730835 241.60948563 C-175.94057596 241.70108365 -183.15344056 241.55843881 -190 236 C-192.23321325 233.79426667 -194.20116971 231.57287241 -196 229 C-196.51345222 228.27796481 -197.02690445 227.55592962 -197.55591583 226.81201458 C-199.32354257 223.36997687 -199.38247533 221.02559369 -199.39440918 217.16401672 C-199.40050028 216.48893057 -199.40659139 215.81384441 -199.41286707 215.11830109 C-199.42947595 212.86295597 -199.42472443 210.60817677 -199.41992188 208.3527832 C-199.4272637 206.73281774 -199.43585026 205.1128575 -199.44558716 203.49290466 C-199.46780613 199.095929 -199.47073345 194.69914073 -199.46883965 190.30211663 C-199.4687199 186.62699097 -199.47728616 182.95190495 -199.48561716 179.27679032 C-199.50485465 170.6009225 -199.50773466 161.92515088 -199.50097656 153.24926758 C-199.49434354 144.31340271 -199.51716945 135.37795145 -199.55429029 126.44217044 C-199.5850382 118.76042411 -199.59634157 111.07881043 -199.59245348 103.39700383 C-199.5903903 98.81354171 -199.59579753 94.23040106 -199.62034607 89.64699745 C-199.64269342 85.33185975 -199.64066955 81.01739094 -199.62041855 76.70224953 C-199.61702195 75.12452164 -199.62203907 73.54674804 -199.63640213 71.96908188 C-199.78262003 54.70748229 -199.78262003 54.70748229 -194 48 C-192.33883258 47.31974635 -190.67258926 46.6516651 -189 46 C-188.67 45.01 -188.34 44.02 -188 43 C-181.607966 39.10944186 -175.02761484 39.57922536 -167.7277832 39.61523438 C-166.3866276 39.61112404 -165.04547557 39.60566043 -163.70433044 39.59895325 C-160.82604144 39.58726518 -157.947944 39.58473075 -155.06963539 39.58930969 C-150.50801031 39.596149 -145.94663465 39.58019892 -141.38505554 39.56091309 C-131.69421709 39.52311869 -122.00340082 39.51027781 -112.3125 39.5 C-101.86524078 39.48890561 -91.41809768 39.4733663 -80.9709174 39.42928743 C-76.44733155 39.411048 -71.92403347 39.40699693 -67.40041983 39.41422272 C-64.57109942 39.41575741 -61.74191959 39.40488019 -58.91263771 39.39084435 C-56.9994105 39.38501025 -55.08615556 39.39388174 -53.17294312 39.40339661 C-43.21907278 39.3334643 -33.61086664 38.08163638 -24.9375 32.875 C-22.23613669 31.28036263 -19.98351114 29.99450371 -17 29 C-17 28.34 -17 27.68 -17 27 C-15.54797978 25.81865985 -14.09482334 24.63867694 -12.63476562 23.46728516 C-9.95738359 21.06419883 -8.15086437 18.21762352 -6.25 15.1875 C-5.86457031 14.60935547 -5.47914063 14.03121094 -5.08203125 13.43554688 C-2.29896879 9.07798369 -1.04653386 5.06010257 0 0 Z " fill="#000000" transform="translate(639,280)"/>
<path d="M0 0 C1.35511079 -0.00330308 2.71022061 -0.00702958 4.06532919 -0.01114148 C7.77921419 -0.02111925 11.49308302 -0.02487144 15.20697951 -0.02753079 C19.2167693 -0.03144646 23.22654645 -0.04102392 27.23632812 -0.04974365 C36.91544313 -0.06947301 46.59455913 -0.07957003 56.27368921 -0.08847144 C60.8380553 -0.09286034 65.40242025 -0.09822561 69.96678543 -0.10346031 C85.15072832 -0.12046946 100.3346705 -0.13496185 115.51862144 -0.14220905 C119.45574316 -0.14411877 123.39286488 -0.14603913 127.32998657 -0.147995 C128.30847166 -0.14847874 129.28695675 -0.14896248 130.2950929 -0.14946087 C146.13265584 -0.15775457 161.9701431 -0.18308173 177.80767302 -0.21557567 C194.08806688 -0.24870439 210.36842235 -0.26666308 226.64885008 -0.26985329 C235.78142406 -0.27201307 244.91388768 -0.2806834 254.04642868 -0.30631447 C261.82686831 -0.32810107 269.60717075 -0.33603298 277.38763742 -0.32634769 C281.35132096 -0.32182584 285.31472194 -0.32356445 289.27836609 -0.34310913 C326.76142283 -0.51776568 326.76142283 -0.51776568 342.05703735 7.83467102 C342.70672485 8.17498352 343.35641235 8.51529602 344.02578735 8.86592102 C364.2092376 19.77053559 378.96538355 36.95859117 385.91906309 58.8437252 C389.12353596 70.77909892 389.30814729 82.36045385 389.25247192 94.65351868 C389.25708903 96.89172075 389.26344735 99.12991979 389.2713809 101.36811256 C389.28798593 107.47661989 389.27986808 113.58487531 389.26743603 119.69338322 C389.25928646 125.6178303 389.26999461 131.54223652 389.28002549 137.46667415 C389.30102258 150.32154498 389.29928927 163.17633599 389.28770984 176.0312143 C389.27762658 187.28107705 389.27503059 198.53091063 389.27980042 209.78077698 C389.28010596 210.52854124 389.2804115 211.2763055 389.28072629 212.04672928 C389.28197176 215.0825513 389.28324537 218.1183733 389.28456535 221.15419529 C389.29678683 249.60183086 389.28573058 278.04941577 389.26417776 306.49704352 C389.24519695 331.74177462 389.24689553 356.986425 389.26602173 382.2311554 C389.28746482 410.62851639 389.2959199 439.02583264 389.28357267 467.42320061 C389.28228991 470.45332208 389.28103854 473.48344357 389.27980042 476.51356506 C389.27948411 477.25959593 389.2791678 478.00562679 389.2788419 478.77426465 C389.27430214 490.01391519 389.27959417 501.25353328 389.28971863 512.49317932 C389.30117966 525.27995358 389.29824538 538.06663592 389.27659565 550.8533988 C389.26591967 557.37297334 389.2619236 563.89241824 389.27519226 570.41199493 C389.28717029 576.38795268 389.28046447 582.36359641 389.25928205 588.33952594 C389.25483889 590.49340785 389.25703034 592.64731667 389.2667852 594.80118108 C389.33094001 610.15220848 388.59309438 625.65907276 381.05703735 639.45967102 C380.71672485 640.10935852 380.37641235 640.75904602 380.02578735 641.42842102 C369.03877959 661.76437357 352.0809008 675.74157032 330.38177013 683.32191563 C316.17838113 687.22372123 301.6854348 686.71242051 287.07746184 686.65541065 C283.06857399 686.64419194 279.05974176 686.65627893 275.05085754 686.66525269 C267.22045319 686.67911262 259.39021121 686.67168347 251.55981473 686.6565771 C242.42520616 686.63963182 233.29063707 686.64293785 224.15601762 686.64667118 C207.85061202 686.65253623 191.54528388 686.63843024 175.23989868 686.61372375 C159.44592385 686.58979515 143.65205245 686.58272586 127.85806274 686.59321594 C110.62244433 686.60464316 93.38687364 686.60653386 76.15125579 686.59211785 C74.31114591 686.59059214 72.47103602 686.58907178 70.63092613 686.58755684 C69.27316869 686.58642012 69.27316869 686.58642012 67.88798181 686.58526043 C61.53191503 686.58053246 55.17586967 686.58235836 48.81980324 686.58662224 C41.06842932 686.59156519 33.31715287 686.58549192 25.56580118 686.56572794 C21.61665728 686.55590422 17.6676613 686.55069723 13.71850967 686.55862045 C10.09459863 686.56574207 6.4709844 686.55872368 2.84711214 686.54101682 C0.93459556 686.53513645 -0.97794923 686.54373085 -2.89045209 686.55306333 C-25.51543035 686.38942324 -46.24506096 678.16810177 -62.28671265 662.27217102 C-82.29029039 641.60351268 -86.88999565 618.39950293 -86.76339722 590.60322571 C-86.76801527 588.37312286 -86.77437422 586.14302306 -86.78230619 583.91292953 C-86.79889823 577.83141484 -86.79079939 571.75015345 -86.77836132 565.66863823 C-86.77020712 559.76880674 -86.78092265 553.86902756 -86.79095078 547.96920335 C-86.81194047 535.16890952 -86.81021755 522.36869588 -86.79863513 509.56839454 C-86.78854932 498.36625125 -86.78595706 487.16413726 -86.79072571 475.96199036 C-86.79103125 475.21721265 -86.79133679 474.47243495 -86.79165159 473.70508823 C-86.79289706 470.68134266 -86.79417068 467.65759711 -86.79549064 464.63385157 C-86.80771037 436.30308014 -86.79665867 407.97235959 -86.77510305 379.64159602 C-86.75612244 354.50410418 -86.75782102 329.36669341 -86.77694702 304.22920227 C-86.79839309 275.94828677 -86.80684354 247.66741619 -86.79449797 219.38649368 C-86.79321521 216.36844636 -86.79196384 213.35039903 -86.79072571 210.33235168 C-86.7904094 209.58930105 -86.79009309 208.84625041 -86.78976719 208.08068308 C-86.78522866 196.88908824 -86.79051716 185.69752599 -86.80064392 174.50593567 C-86.81210834 161.77301287 -86.8091635 149.04018238 -86.78752095 136.307271 C-86.7770383 129.81590667 -86.77284125 123.32470647 -86.78611755 116.83334351 C-86.79810485 110.88204526 -86.79137476 104.9310621 -86.77020735 98.97979212 C-86.76576805 96.83601645 -86.76794673 94.69221374 -86.7777105 92.54845572 C-86.89509468 64.61541515 -80.13254131 42.83467096 -60.75546265 22.27217102 C-43.70193673 6.24264435 -22.89354318 -0.0033711 0 0 Z M-33.75546265 26.02217102 C-34.32675903 26.37239319 -34.89805542 26.72261536 -35.48666382 27.08345032 C-37.09142508 28.08069644 -38.67442965 29.11271793 -40.25546265 30.14717102 C-41.40981812 30.87226868 -41.40981812 30.87226868 -42.5874939 31.61201477 C-54.94510749 40.02104177 -64.00022809 55.67389737 -67.25546265 70.14717102 C-68.10594805 75.93539849 -68.39863832 81.53314009 -68.3840971 87.37803364 C-68.38585014 88.27880688 -68.38760317 89.17958013 -68.38940933 90.10764953 C-68.39405852 93.12379396 -68.39160661 96.13988996 -68.38917542 99.15603638 C-68.39104393 101.34124579 -68.39334479 103.52645487 -68.39604074 105.71166342 C-68.4021601 111.7151898 -68.40202498 117.71870225 -68.40084636 123.72223103 C-68.40064239 130.19748279 -68.40616074 136.67273006 -68.41090393 143.14797974 C-68.41942883 155.8333594 -68.42197178 168.5187351 -68.42251631 181.20411734 C-68.42297598 191.5141885 -68.42503502 201.82425816 -68.42821693 212.13432884 C-68.42911449 215.1028764 -68.4300043 218.07142397 -68.43089181 221.03997153 C-68.43111286 221.77797498 -68.43133391 222.51597844 -68.43156165 223.27634563 C-68.43771506 244.032412 -68.4416623 264.78847785 -68.44121838 285.54454517 C-68.4412028 286.32695558 -68.44118722 287.10936599 -68.44117117 287.9154858 C-68.44108806 291.88100272 -68.44098902 295.84651963 -68.44088646 299.81203655 C-68.44086652 300.59959269 -68.44084657 301.38714882 -68.44082602 302.19857029 C-68.44078558 303.79120011 -68.44074379 305.38382994 -68.44070063 306.97645976 C-68.44008784 331.75643253 -68.44759536 356.53639162 -68.46127319 381.31636047 C-68.4766363 409.16093982 -68.48523929 437.00551017 -68.48430997 464.85009402 C-68.48423534 467.81958465 -68.48418663 470.78907527 -68.48415565 473.7585659 C-68.484144 474.489722 -68.48413235 475.2208781 -68.48412034 475.97419044 C-68.48408958 487.73583225 -68.49047298 499.49746217 -68.49908792 511.25910045 C-68.50756787 523.08098971 -68.50838018 534.90286013 -68.5019786 546.72475079 C-68.49870969 553.12805239 -68.49867016 559.53131094 -68.50733185 565.93460846 C-68.5151812 571.79764785 -68.51378137 577.66060993 -68.50504772 583.52364739 C-68.50350929 585.64337495 -68.50534175 587.76310824 -68.51090779 589.88282905 C-68.56944023 613.75715891 -64.55978798 632.57536935 -47.44296265 650.39717102 C-44.7853032 653.04998955 -43.00827551 654.57370748 -39.25546265 655.14717102 C-39.25546265 655.80717102 -39.25546265 656.46717102 -39.25546265 657.14717102 C-29.99160202 664.28806359 -16.28339869 668.2598855 -4.66170979 668.2813921 C-3.54120175 668.28584994 -2.42069371 668.29030779 -1.26623088 668.29490072 C-0.04018789 668.29471635 1.1858551 668.29453199 2.4490509 668.29434204 C4.4087646 668.29985707 4.4087646 668.29985707 6.40806848 668.30548352 C10.03332899 668.31548399 13.65857295 668.31921719 17.28384531 668.32187283 C21.19484748 668.32578192 25.10583661 668.33536012 29.01683044 668.34408569 C38.46393263 668.36383738 47.91103588 668.37391659 57.35815355 668.38281348 C61.8123152 668.38720021 66.26647566 668.39256618 70.72063637 668.39780235 C85.53820009 668.41481653 100.35576308 668.42930772 115.17333508 668.43655109 C119.01762582 668.43846085 122.86191656 668.4403812 126.70620728 668.44233704 C128.13935057 668.44306265 128.13935057 668.44306265 129.60144625 668.44380292 C145.05693666 668.45209197 160.5123494 668.47740899 175.96780594 668.50991771 C191.85376703 668.54305794 207.73968875 668.5610063 223.62568456 668.56419533 C232.53755052 668.56635445 241.44930334 668.57501457 250.36113548 668.60065651 C257.95604505 668.62245919 265.55081401 668.63036738 273.14575132 668.62068973 C277.01436001 668.61617197 280.8826792 668.6178819 284.75124741 668.63745117 C311.51134722 669.61819952 311.51134722 669.61819952 335.74453735 660.14717102 C336.61078735 659.81717102 337.47703735 659.48717102 338.36953735 659.14717102 C341.26371083 657.92857166 342.58151984 656.43378953 344.74453735 654.14717102 C345.97279607 653.14605604 347.20208449 652.14620388 348.43203735 651.14717102 C356.91353854 643.74168118 362.65354867 634.54715429 366.74453735 624.14717102 C367.07174867 623.36341374 367.39895998 622.57965647 367.73608679 621.77214897 C371.99957765 610.67436208 371.03362117 598.38483164 371.01869202 586.70402527 C371.02314783 584.50812699 371.02846301 582.31223032 371.03456074 580.11633599 C371.04870966 574.09695799 371.05040462 568.0776317 371.04996383 562.05823946 C371.05161476 555.56042194 371.06468635 549.06262556 371.07615662 542.56481934 C371.09826609 529.10283611 371.10641 515.64086542 371.11119162 502.17886643 C371.11158338 501.08224424 371.11158338 501.08224424 371.11198306 499.96346807 C371.11237347 498.86456795 371.11237347 498.86456795 371.11277177 497.74346782 C371.11585811 489.61313224 371.12236425 481.48279991 371.12898445 473.35246658 C371.14862702 448.78191983 371.1650346 424.21137657 371.16786098 399.64082146 C371.16800208 398.46285701 371.16800208 398.46285701 371.16814602 397.26109531 C371.16852448 394.07878094 371.16888848 390.89646657 371.169249 387.71415219 C371.16952071 385.31910378 371.16979739 382.92405537 371.17007446 380.52900696 C371.17016249 379.73759046 371.17025051 378.94617395 371.1703412 378.13077513 C371.17324599 353.26966899 371.19533916 328.40864062 371.2315979 303.54756165 C371.27236276 275.59632283 371.29601983 247.64513701 371.2963205 219.69386685 C371.29641731 216.71083458 371.29658403 213.72780232 371.29680061 210.74477005 C371.29684473 210.01030854 371.29688884 209.27584703 371.29693429 208.51912911 C371.29805207 196.72254433 371.31543033 184.92603778 371.33861993 173.12947815 C371.36151134 161.26413855 371.3656562 149.39890414 371.35107064 137.53355055 C371.34390849 131.11117293 371.34472993 124.68906516 371.36748123 118.26671791 C371.38813725 112.37929481 371.38540856 106.4923479 371.36460639 100.60492958 C371.36112424 98.48316286 371.3659669 96.36136131 371.38031083 94.23964022 C371.51822875 72.4205846 367.12080062 53.31607205 351.6234436 36.90888977 C349.18930153 34.62656529 346.60191784 32.86159931 343.74453735 31.14717102 C343.02266235 30.50779602 342.30078735 29.86842102 341.55703735 29.20967102 C324.38216505 16.61476466 303.11187337 17.55423723 282.89918947 17.62427235 C278.99180668 17.63340756 275.08449266 17.6193116 271.17712402 17.60835266 C263.54310423 17.59065229 255.90924257 17.59436932 248.27521682 17.60600322 C242.06576866 17.6150709 235.85636452 17.6162472 229.64691162 17.61190796 C228.31659325 17.61098856 228.31659325 17.61098856 226.95939976 17.61005059 C225.15720199 17.60877157 223.35500424 17.60747471 221.5528065 17.60616022 C204.6902343 17.59477928 187.82774937 17.60782899 170.96519148 17.62936169 C156.52538551 17.6472304 142.0857082 17.6441256 127.64590454 17.62568665 C110.83986134 17.60423588 94.03389445 17.59587768 77.22783947 17.6081357 C75.43261402 17.60940977 73.63738856 17.61066726 71.84216309 17.61190796 C70.51755462 17.61283361 70.51755462 17.61283361 69.16618639 17.61377797 C62.97085923 17.61721827 56.77558084 17.61143112 50.58026123 17.60198975 C43.02067107 17.5907215 35.46124684 17.59391051 27.90167546 17.61511272 C24.05148272 17.62555869 20.20156571 17.62985667 16.35137558 17.61651611 C-9.70194267 17.10268447 -9.70194267 17.10268447 -33.75546265 26.02217102 Z " fill="#B0B810" transform="translate(389.2554626464844,196.8528289794922)"/>
<path d="M0 0 C2.31 0 4.62 0 7 0 C7.495 8.91 7.495 8.91 8 18 C8.66 18 9.32 18 10 18 C10.20625 17.443125 10.4125 16.88625 10.625 16.3125 C11.96846753 14.05303189 13.05157702 13.0001344 15.0625 11.375 C18.00824713 9.32880603 18.00824713 9.32880603 19 7 C21.475 7.495 21.475 7.495 24 8 C24.495 9.98 24.495 9.98 25 12 C24.278125 12.556875 23.55625 13.11375 22.8125 13.6875 C18.6249026 17.13063564 15.25642644 20.65809808 12 25 C18.6 25 25.2 25 32 25 C32 26.98 32 28.96 32 31 C25.4 31 18.8 31 12 31 C13.65 32.65 15.3 34.3 17 36 C18.45058089 37.59234796 19.88895741 39.19593468 21.3125 40.8125 C22.35857422 41.99779297 22.35857422 41.99779297 23.42578125 43.20703125 C23.94527344 43.79871094 24.46476563 44.39039063 25 45 C24.34 46.32 23.68 47.64 23 49 C21.68 49 20.36 49 19 49 C17.27906214 47.04650297 15.6217379 45.03660108 14 43 C11.69 41.02 9.38 39.04 7 37 C7 43.27 7 49.54 7 56 C4.69 56 2.38 56 0 56 C0 50.06 0 44.12 0 38 C-5.70007426 40.85003713 -9.14611966 45.00422919 -13 50 C-15.43270079 49.05830937 -16.72437686 48.47018066 -18.0625 46.1875 C-18 44 -18 44 -16 41.625 C-13.18011502 39.15760064 -10.34498477 36.71467224 -7.453125 34.33203125 C-5.87220817 33.0420309 -5.87220817 33.0420309 -5 31 C-11.6 31 -18.2 31 -25 31 C-25 29.02 -25 27.04 -25 25 C-18.4 25 -11.8 25 -5 25 C-10.89126651 17.81357253 -10.89126651 17.81357253 -18 12 C-17.67 10.68 -17.34 9.36 -17 8 C-14.8125 7.1875 -14.8125 7.1875 -12 7 C-9.5 9.125 -9.5 9.125 -7 12 C-6.0925 12.9075 -5.185 13.815 -4.25 14.75 C-3.16666667 15.83333333 -2.08333333 16.91666667 -1 18 C-0.67 12.06 -0.34 6.12 0 0 Z " fill="#EBE6D3" transform="translate(597,454)"/>
<path d="M0 0 C4 0 4 0 6.4375 2.1875 C7.283125 3.115625 8.12875 4.04375 9 5 C9.9075 5.86625 10.815 6.7325 11.75 7.625 C14 10 14 10 15 13 C15.66 13.66 16.32 14.32 17 15 C16.01 15 15.02 15 14 15 C14.33 17.64 14.66 20.28 15 23 C15.99 23.33 16.98 23.66 18 24 C18 24.66 18 25.32 18 26 C18.99 26.33 19.98 26.66 21 27 C21.92188461 29.76565382 22.11785222 31.38283702 22.09765625 34.23046875 C22.09443359 35.03291016 22.09121094 35.83535156 22.08789062 36.66210938 C22.07951172 37.49548828 22.07113281 38.32886719 22.0625 39.1875 C22.05798828 40.03248047 22.05347656 40.87746094 22.04882812 41.74804688 C22.03705403 43.83206155 22.0191189 45.91603977 22 48 C20.35 48 18.7 48 17 48 C17 41.73 17 35.46 17 29 C11.63730585 33.29015532 7.18723586 37.57210166 3 43 C0.56729921 42.05830937 -0.72437686 41.47018066 -2.0625 39.1875 C-2 37 -2 37 0 34.625 C2.81988498 32.15760064 5.65501523 29.71467224 8.546875 27.33203125 C10.12779183 26.0420309 10.12779183 26.0420309 11 24 C4.4 24 -2.2 24 -9 24 C-9 22.02 -9 20.04 -9 18 C-2.4 18 4.2 18 11 18 C5.10873349 10.81357253 5.10873349 10.81357253 -2 5 C-1.125 1.125 -1.125 1.125 0 0 Z " fill="#EEE8D5" transform="translate(581,461)"/>
<path d="M0 0 C0.65355469 0.58007812 0.65355469 0.58007812 1.3203125 1.171875 C4.2558359 3.73886948 7.13381895 6.1684444 10.4375 8.25 C11.283125 8.8275 12.12875 9.405 13 10 C13 10.66 13 11.32 13 12 C13.9590625 12.37125 13.9590625 12.37125 14.9375 12.75 C17.53278938 13.80930179 20.11456386 14.8878276 22.6875 16 C23.45449219 16.33 24.22148437 16.66 25.01171875 17 C27 18 27 18 29 20 C23.88523181 20.63934602 20.32745622 18.40533547 16 16 C15.67 17.32 15.34 18.64 15 20 C14.34 20 13.68 20 13 20 C12.67 22.64 12.34 25.28 12 28 C11.67 27.34 11.34 26.68 11 26 C10.34 26 9.68 26 9 26 C9 25.34 9 24.68 9 24 C7.02 23.67 5.04 23.34 3 23 C3.33 23.99 3.66 24.98 4 26 C4.66 26 5.32 26 6 26 C6 26.66 6 27.32 6 28 C7.32 28 8.64 28 10 28 C10.66 29.32 11.32 30.64 12 32 C-0.17246018 27.43267201 -9.94251393 17.96583803 -18 8 C-17.67 7.34 -17.34 6.68 -17 6 C-15.35 6 -13.7 6 -12 6 C-11.9175 6.763125 -11.835 7.52625 -11.75 8.3125 C-10.85384206 11.52373261 -9.78388975 12.29374499 -7 14 C-7 13.34 -7 12.68 -7 12 C-7.66 12 -8.32 12 -9 12 C-9 10.68 -9 9.36 -9 8 C-8.34 8 -7.68 8 -7 8 C-7 8.66 -7 9.32 -7 10 C-5.68 10 -4.36 10 -3 10 C-3 9.34 -3 8.68 -3 8 C-2.34 8 -1.68 8 -1 8 C-1 7.34 -1 6.68 -1 6 C-0.01 6 0.98 6 2 6 C1.34 4.02 0.68 2.04 0 0 Z " fill="#ABB210" transform="translate(337,842)"/>
<path d="M0 0 C8.56452726 7.03933747 8.56452726 7.03933747 10 10 C9.93216262 13.86673051 9.8624765 16.10877428 7.125 18.9375 C5 20 5 20 2 20 C2 19.34 2 18.68 2 18 C1.34 18 0.68 18 0 18 C0.04125 19.27875 0.0825 20.5575 0.125 21.875 C0.1953125 24.0546875 0.1953125 24.0546875 0 26 C-0.66 26.66 -1.32 27.32 -2 28 C-2.98058352 26.54261898 -3.95942132 25.08406325 -4.9375 23.625 C-5.48277344 22.81289062 -6.02804687 22.00078125 -6.58984375 21.1640625 C-8 19 -8 19 -9 17 C-7.68 17.33 -6.36 17.66 -5 18 C-4.67 19.32 -4.34 20.64 -4 22 C-3.34 22 -2.68 22 -2 22 C-1.7834375 20.576875 -1.7834375 20.576875 -1.5625 19.125 C-1 16 -1 16 0 14 C0.66 14 1.32 14 2 14 C2.33 12.68 2.66 11.36 3 10 C3 10.66 3 11.32 3 12 C3.99 12 4.98 12 6 12 C6 12.66 6 13.32 6 14 C6.66 14 7.32 14 8 14 C7.34 12.68 6.68 11.36 6 10 C5.01 10.495 5.01 10.495 4 11 C3.38125 10.175 2.7625 9.35 2.125 8.5 C1.073125 7.2625 1.073125 7.2625 0 6 C-0.66 6 -1.32 6 -2 6 C-1.125 1.125 -1.125 1.125 0 0 Z " fill="#B2BA12" transform="translate(752,220)"/>
<path d="M0 0 C0.66 0.33 1.32 0.66 2 1 C2 1.99 2 2.98 2 4 C2.845625 4.350625 3.69125 4.70125 4.5625 5.0625 C9.70927871 7.96341163 13.8191 11.58685652 16.4375 16.9375 C16.623125 17.618125 16.80875 18.29875 17 19 C16.34 19.66 15.68 20.32 15 21 C13.68 21 12.36 21 11 21 C9.72232676 19.59128335 8.45326079 18.1691024 7.30078125 16.65625 C5.85519878 14.74132359 5.85519878 14.74132359 3.25 12.3125 C1 10 1 10 0 7 C-0.66 7 -1.32 7 -2 7 C-2.33 6.01 -2.66 5.02 -3 4 C-2.34 4 -1.68 4 -1 4 C-0.67 2.68 -0.34 1.36 0 0 Z " fill="#E6E1D0" transform="translate(605,482)"/>
<path d="M0 0 C0.99 0 1.98 0 3 0 C3.19469027 8.17699115 3.19469027 8.17699115 2 12 C0.30351636 13.75067107 -1.46830949 15.22584248 -3.40625 16.703125 C-5.13591647 17.92891994 -5.13591647 17.92891994 -6 20 C-8.43270079 19.05830937 -9.72437686 18.47018066 -11.0625 16.1875 C-11 14 -11 14 -9 11.625 C-6.18011502 9.15760064 -3.34498477 6.71467224 -0.453125 4.33203125 C1.12779183 3.0420309 1.12779183 3.0420309 2 1 C1.34 0.67 0.68 0.34 0 0 Z " fill="#D9D4C4" transform="translate(590,484)"/>
<path d="M0 0 C3.875 0.875 3.875 0.875 5 2 C5.14636054 5.36629251 5.07193479 7.78419562 4 11 C4.66 11 5.32 11 6 11 C5.67 17.93 5.34 24.86 5 32 C2.69 32 0.38 32 -2 32 C-2 26.06 -2 20.12 -2 14 C-2.66 13.67 -3.32 13.34 -4 13 C-3.01 12.67 -2.02 12.34 -1 12 C-1 18.27 -1 24.54 -1 31 C0.65 31 2.3 31 4 31 C3.85924795 28.06217531 3.7126162 25.12484829 3.5625 22.1875 C3.52318359 21.35412109 3.48386719 20.52074219 3.44335938 19.66210938 C3.38051758 18.45844727 3.38051758 18.45844727 3.31640625 17.23046875 C3.27974854 16.49207764 3.24309082 15.75368652 3.20532227 14.99291992 C3.05157859 12.792505 3.05157859 12.792505 2 10 C1.34 9.67 0.68 9.34 0 9 C-1.57548683 6.37418862 -2 5.12900213 -2 2 C-1.34 2 -0.68 2 0 2 C0 1.34 0 0.68 0 0 Z " fill="#AAA498" transform="translate(599,478)"/>
<path d="M0 0 C1.65 0 3.3 0 5 0 C5 6.93 5 13.86 5 21 C4.67 20.34 4.34 19.68 4 19 C2.68 19 1.36 19 0 19 C0 12.73 0 6.46 0 0 Z " fill="#F1EBD7" transform="translate(598,454)"/>
<path d="M0 0 C0.33 0 0.66 0 1 0 C1 6.27 1 12.54 1 19 C2.32 19 3.64 19 5 19 C5.33 12.73 5.66 6.46 6 0 C6.33 0 6.66 0 7 0 C7.16768291 2.93744524 7.33418858 5.87494904 7.5 8.8125 C7.54769531 9.64587891 7.59539063 10.47925781 7.64453125 11.33789062 C7.68964844 12.14033203 7.73476563 12.94277344 7.78125 13.76953125 C7.8440918 14.87711792 7.8440918 14.87711792 7.90820312 16.00708008 C8.12652832 20.74694335 8.12652832 20.74694335 7 23 C5.68 22.34 4.36 21.68 3 21 C2.67 21.66 2.34 22.32 2 23 C1.34 23 0.68 23 0 23 C0 23.66 0 24.32 0 25 C0.66 25.33 1.32 25.66 2 26 C1.34 26 0.68 26 0 26 C0.66 27.65 1.32 29.3 2 31 C0.68 30.67 -0.64 30.34 -2 30 C-2.12533031 22.4801812 -2.12533031 22.4801812 -1.51367188 20.13671875 C-0.98597796 17.94167258 -0.79622727 15.92454542 -0.68359375 13.671875 C-0.64169922 12.87265625 -0.59980469 12.0734375 -0.55664062 11.25 C-0.49766602 10.0125 -0.49766602 10.0125 -0.4375 8.75 C-0.39431641 7.90953125 -0.35113281 7.0690625 -0.30664062 6.203125 C-0.20091457 4.13559329 -0.09998705 2.06781719 0 0 Z " fill="#BEB8A9" transform="translate(597,454)"/>
<path d="M0 0 C4 0 4 0 6.4375 2.1875 C7.283125 3.115625 8.12875 4.04375 9 5 C9.928125 5.928125 10.85625 6.85625 11.8125 7.8125 C12.534375 8.534375 13.25625 9.25625 14 10 C13.34 10.66 12.68 11.32 12 12 C9.375 11.625 9.375 11.625 7 11 C7.33 10.01 7.66 9.02 8 8 C6.68 7.67 5.36 7.34 4 7 C4.33 8.32 4.66 9.64 5 11 C2.69 9.02 0.38 7.04 -2 5 C-1 1 -1 1 0 0 Z " fill="#D6CFC1" transform="translate(581,461)"/>
<path d="M0 0 C1.65 0.33 3.3 0.66 5 1 C5.33 2.32 5.66 3.64 6 5 C5.195625 5.61875 4.39125 6.2375 3.5625 6.875 C0.96125481 8.74164041 0.96125481 8.74164041 0 11 C-1.3921875 10.505 -1.3921875 10.505 -2.8125 10 C-5.92029291 8.85032996 -5.92029291 8.85032996 -9 9 C-8.43410156 8.51789063 -7.86820313 8.03578125 -7.28515625 7.5390625 C-6.55167969 6.90742188 -5.81820312 6.27578125 -5.0625 5.625 C-4.33160156 4.99851562 -3.60070312 4.37203125 -2.84765625 3.7265625 C-0.91619094 2.12252286 -0.91619094 2.12252286 0 0 Z " fill="#DCD9C8" transform="translate(616,461)"/>
<path d="M0 0 C0.33 0.66 0.66 1.32 1 2 C1.99 1.67 2.98 1.34 4 1 C3.60196439 3.88575819 3.20990931 4.82189513 0.9375 6.75 C0.298125 7.1625 -0.34125 7.575 -1 8 C-1 7.01 -1 6.02 -1 5 C-1.99 5.495 -1.99 5.495 -3 6 C-3.33 6.99 -3.66 7.98 -4 9 C-3.34 9 -2.68 9 -2 9 C-2.33 9.99 -2.66 10.98 -3 12 C-5.0445654 11.48885865 -7.08763403 10.97680276 -9.125 10.4375 C-11.00371953 9.92425679 -11.00371953 9.92425679 -13 10 C-13 9.34 -13 8.68 -13 8 C-12.34 8 -11.68 8 -11 8 C-10.67 7.01 -10.34 6.02 -10 5 C-8.68 5.99 -7.36 6.98 -6 8 C-5.7525 7.236875 -5.505 6.47375 -5.25 5.6875 C-3.89004442 2.7635955 -2.68414174 1.69995644 0 0 Z " fill="#F2ECDA" transform="translate(610,469)"/>
<path d="M0 0 C0.66 0.33 1.32 0.66 2 1 C1.01 3.31 0.02 5.62 -1 8 C-1.99 8 -2.98 8 -4 8 C-4.66 9.32 -5.32 10.64 -6 12 C-6.66 12 -7.32 12 -8 12 C-8 12.66 -8 13.32 -8 14 C-12 14 -12 14 -14 13 C-9.99191229 7.69898077 -5.33731159 3.93030788 0 0 Z " fill="#111006" transform="translate(350,226)"/>
<path d="M0 0 C0.66 0.33 1.32 0.66 2 1 C1.34 2.98 0.68 4.96 0 7 C-0.33 6.34 -0.66 5.68 -1 5 C-1.99 5.33 -2.98 5.66 -4 6 C-4.33 6.99 -4.66 7.98 -5 9 C-7.58072903 11.32265612 -8.45176068 12 -12 12 C-12.33 13.32 -12.66 14.64 -13 16 C-14.32 16.33 -15.64 16.66 -17 17 C-13.61990778 9.48503768 -6.5571142 4.64959007 0 0 Z " fill="#808813" transform="translate(340,210)"/>
<path d="M0 0 C7.66742597 5.96583144 7.66742597 5.96583144 9 11 C8.34 11.66 7.68 12.32 7 13 C5.68 13 4.36 13 3 13 C2 10 2 10 2 8 C1.484375 7.566875 0.96875 7.13375 0.4375 6.6875 C-0.036875 6.130625 -0.51125 5.57375 -1 5 C-0.6875 2.3125 -0.6875 2.3125 0 0 Z " fill="#DBD5C6" transform="translate(613,490)"/>
<path d="M0 0 C1.05078125 1.8671875 1.05078125 1.8671875 2 4 C1.1875 6.125 1.1875 6.125 0 8 C-0.33 8.66 -0.66 9.32 -1 10 C-0.34 10 0.32 10 1 10 C0.45144652 14.571279 -0.41744803 18.67435795 -2 23 C-2.33 23 -2.66 23 -3 23 C-3.32098157 14.64259099 -3.21819111 7.77729519 0 0 Z " fill="#040205" transform="translate(325,258)"/>
<path d="M0 0 C7.48291572 6.15034169 7.48291572 6.15034169 10 10 C9.67 10.66 9.34 11.32 9 12 C8.01 11.34 7.02 10.68 6 10 C5.01 10.495 5.01 10.495 4 11 C3.38125 10.175 2.7625 9.35 2.125 8.5 C1.073125 7.2625 1.073125 7.2625 0 6 C-0.66 6 -1.32 6 -2 6 C-1.125 1.125 -1.125 1.125 0 0 Z " fill="#8D9911" transform="translate(752,220)"/>
<path d="M0 0 C2.475 0.99 2.475 0.99 5 2 C5 2.66 5 3.32 5 4 C5.639375 4.2475 6.27875 4.495 6.9375 4.75 C9.53278938 5.80930179 12.11456386 6.8878276 14.6875 8 C15.83798828 8.495 15.83798828 8.495 17.01171875 9 C19 10 19 10 21 12 C16.40814544 12.59249736 13.2111899 10.92014208 9.18359375 8.97265625 C7.04372869 7.93675319 7.04372869 7.93675319 4.796875 7.48828125 C3 7 3 7 1.8125 5.125 C1.16535941 3.43247845 0.57301136 1.71903407 0 0 Z " fill="#A5AE1F" transform="translate(345,850)"/>
<path d="M0 0 C0.99 0 1.98 0 3 0 C1.53033642 3.39859703 -0.38037514 5.64963709 -3 8.25 C-3.70125 8.95640625 -4.4025 9.6628125 -5.125 10.390625 C-7 12 -7 12 -9 12 C-8.49396008 9.83125748 -8.00016187 8.00032373 -7 6 C-7.33 5.34 -7.66 4.68 -8 4 C-6.02 4 -4.04 4 -2 4 C-2 3.34 -2 2.68 -2 2 C-1.34 2 -0.68 2 0 2 C0 1.34 0 0.68 0 0 Z " fill="#888F18" transform="translate(756,852)"/>
<path d="M0 0 C0 0.33 0 0.66 0 1 C-0.79921875 1.14695313 -1.5984375 1.29390625 -2.421875 1.4453125 C-10.70856926 3.13766555 -17.62069514 5.89152216 -25 10 C-25.33 9.34 -25.66 8.68 -26 8 C-25.01 8 -24.02 8 -23 8 C-23 7.34 -23 6.68 -23 6 C-15.15103405 1.39746499 -9.14803051 -0.97242844 0 0 Z " fill="#9FA724" transform="translate(376,216)"/>
<path d="M0 0 C7.57142857 4 7.57142857 4 10 8 C7.36 8 4.72 8 2 8 C2 7.34 2 6.68 2 6 C1.34 6 0.68 6 0 6 C0 5.34 0 4.68 0 4 C-0.66 3.67 -1.32 3.34 -2 3 C-1.34 2.01 -0.68 1.02 0 0 Z " fill="#949D10" transform="translate(742,212)"/>
<path d="M0 0 C1.65 0.33 3.3 0.66 5 1 C4.01 1.495 4.01 1.495 3 2 C3 2.66 3 3.32 3 4 C4.32 4.66 5.64 5.32 7 6 C7 6.66 7 7.32 7 8 C6.31550781 7.71382812 5.63101563 7.42765625 4.92578125 7.1328125 C1.71638749 5.89019008 -1.51910114 4.87299966 -4.8125 3.875 C-5.97394531 3.52179688 -7.13539063 3.16859375 -8.33203125 2.8046875 C-9.21246094 2.53914062 -10.09289062 2.27359375 -11 2 C-7.08263419 0.8299903 -4.02040985 1.30415983 0 2 C0 1.34 0 0.68 0 0 Z " fill="#99A11A" transform="translate(720,216)"/>
<path d="M0 0 C5.4185766 -0.22577402 9.77487721 0.53329887 15 2 C15 2.66 15 3.32 15 4 C15.66 4.66 16.32 5.32 17 6 C10.59859065 5.53444296 5.73230171 3.85288164 0 1 C0 0.67 0 0.34 0 0 Z " fill="#848B19" transform="translate(349,874)"/>
<path d="M0 0 C0.33 0.66 0.66 1.32 1 2 C0.01 3.485 0.01 3.485 -1 5 C-1.309375 5.99 -1.61875 6.98 -1.9375 8 C-2.98381419 10.95429888 -3.71449004 12.00017878 -6 14 C-6.66 14.99 -7.32 15.98 -8 17 C-7.53262113 11.07986759 -5.03791739 6.02533998 -2 1 C-1.34 0.67 -0.68 0.34 0 0 Z " fill="#666768" transform="translate(398,587)"/>
<path d="M0 0 C0.66 0.99 1.32 1.98 2 3 C0.90653119 4.34212062 -0.2001575 5.67347975 -1.3125 7 C-2.23482422 8.11375 -2.23482422 8.11375 -3.17578125 9.25 C-5 11 -5 11 -8 11 C-6.52670958 5.99081256 -3.72484762 3.48192278 0 0 Z " fill="#6B6C6F" transform="translate(454,282)"/>
<path d="M0 0 C0.66 0 1.32 0 2 0 C2.06058594 0.62648438 2.12117187 1.25296875 2.18359375 1.8984375 C2.26738281 2.71570313 2.35117187 3.53296875 2.4375 4.375 C2.55931641 5.59316406 2.55931641 5.59316406 2.68359375 6.8359375 C2.89090114 9.04272805 2.89090114 9.04272805 4 11 C3.34 11 2.68 11 2 11 C2 11.66 2 12.32 2 13 C0.68 12.34 -0.64 11.68 -2 11 C-2 10.34 -2 9.68 -2 9 C-2.33 8.34 -2.66 7.68 -3 7 C-2.34 7 -1.68 7 -1 7 C-0.67 6.34 -0.34 5.68 0 5 C-0.33 4.67 -0.66 4.34 -1 4 C-0.5625 1.9375 -0.5625 1.9375 0 0 Z " fill="#E3DDC9" transform="translate(607,474)"/>
<path d="M0 0 C0.33 0 0.66 0 1 0 C1.20568145 5.75908058 0.83081979 10.50754063 -1 16 C-1.99 16.33 -2.98 16.66 -4 17 C-2.07289294 5.47835991 -2.07289294 5.47835991 0 0 Z " fill="#8C9416" transform="translate(308,250)"/>
<path d="M0 0 C1.32 0.33 2.64 0.66 4 1 C4.33 2.65 4.66 4.3 5 6 C2.625 6.625 2.625 6.625 0 7 C-0.66 6.34 -1.32 5.68 -2 5 C-2 4.01 -2 3.02 -2 2 C-1.34 2 -0.68 2 0 2 C0 1.34 0 0.68 0 0 Z " fill="#353029" transform="translate(599,478)"/>
<path d="M0 0 C1.32 0 2.64 0 4 0 C4 0.66 4 1.32 4 2 C5.98 2 7.96 2 10 2 C10.103125 2.598125 10.20625 3.19625 10.3125 3.8125 C11.08876455 6.28243264 12.07088921 7.32251235 14 9 C13.34 9.66 12.68 10.32 12 11 C11.319375 10.278125 10.63875 9.55625 9.9375 8.8125 C7.83544051 6.6923193 5.63592528 4.95693063 3.1875 3.25 C2.135625 2.5075 1.08375 1.765 0 1 C0 0.67 0 0.34 0 0 Z " fill="#A1AA1D" transform="translate(730,226)"/>
<path d="M0 0 C1.98 0 3.96 0 6 0 C6.12375 0.70125 6.2475 1.4025 6.375 2.125 C7.03838345 5.17656387 7.97211955 8.05340938 9 11 C5.43279004 8.32459253 2.58873576 5.64340588 0 2 C0 1.34 0 0.68 0 0 Z " fill="#888F17" transform="translate(319,848)"/>
<path d="M0 0 C0 0.66 0 1.32 0 2 C-1.62626404 3.38232443 -3.2925002 4.71937515 -5 6 C-5.33 5.34 -5.66 4.68 -6 4 C-6.99 4.33 -7.98 4.66 -9 5 C-8.67 3.35 -8.34 1.7 -8 0 C-2.25 -1.125 -2.25 -1.125 0 0 Z " fill="#6E6E70" transform="translate(453,321)"/>
<path d="M0 0 C5.28 0.33 10.56 0.66 16 1 C15.67 1.66 15.34 2.32 15 3 C13.68 3 12.36 3 11 3 C11 3.66 11 4.32 11 5 C9.35153231 4.55123384 7.70626545 4.09069512 6.0625 3.625 C5.14597656 3.36976563 4.22945313 3.11453125 3.28515625 2.8515625 C1 2 1 2 0 0 Z " fill="#1A1B08" transform="translate(357,857)"/>
<path d="M0 0 C1 4 1 4 0.0625 6.25 C-0.4634375 7.11625 -0.4634375 7.11625 -1 8 C-0.34 8 0.32 8 1 8 C1 8.66 1 9.32 1 10 C0.34 10 -0.32 10 -1 10 C-1 10.99 -1 11.98 -1 13 C-1.66 12.67 -2.32 12.34 -3 12 C-3 11.01 -3 10.02 -3 9 C-3.66 8.67 -4.32 8.34 -5 8 C-3.35 5.36 -1.7 2.72 0 0 Z " fill="#9DA517" transform="translate(751,830)"/>
<path d="M0 0 C2.64465038 3.1254959 3.84414715 6.08788267 5 10 C3.35 10 1.7 10 0 10 C-0.74926071 6.33694766 -1.2380014 3.57644848 0 0 Z " fill="#A2AC15" transform="translate(325,822)"/>
<path d="M0 0 C1.32 0.66 2.64 1.32 4 2 C3.67 3.98 3.34 5.96 3 8 C1.0625 7.25 1.0625 7.25 -1 6 C-1.875 4 -1.875 4 -2 2 C-1.34 1.34 -0.68 0.68 0 0 Z " fill="#D4CEC0" transform="translate(581,496)"/>
<path d="M0 0 C1.32 0 2.64 0 4 0 C5 3 5 3 4.0625 5.1875 C3.5365625 6.0846875 3.5365625 6.0846875 3 7 C0.525 6.01 0.525 6.01 -2 5 C-1.125 1.125 -1.125 1.125 0 0 Z " fill="#DFDBCD" transform="translate(581,461)"/>
<path d="M0 0 C1.16161779 2.86578759 0.9946154 4.01630163 0.00390625 7.015625 C-0.70958984 8.61664062 -0.70958984 8.61664062 -1.4375 10.25 C-1.91058594 11.32765625 -2.38367188 12.4053125 -2.87109375 13.515625 C-3.24363281 14.33546875 -3.61617187 15.1553125 -4 16 C-5.34192181 11.97423458 -4.31842495 8.89465762 -3 5 C-1.375 2 -1.375 2 0 0 Z " fill="#7F8618" transform="translate(774,821)"/>
<path d="M0 0 C0.99 0.33 1.98 0.66 3 1 C2.40075776 5.19469571 1.42500059 9.00999834 0 13 C-0.33 13 -0.66 13 -1 13 C-1.02686553 11.02090602 -1.04633375 9.04171029 -1.0625 7.0625 C-1.07410156 5.96035156 -1.08570313 4.85820313 -1.09765625 3.72265625 C-1 1 -1 1 0 0 Z " fill="#0C0C05" transform="translate(755,811)"/>
<path d="M0 0 C2.36574234 3.5486135 2.10865265 4.5764525 1.625 8.6875 C1.51414062 9.68136719 1.40328125 10.67523438 1.2890625 11.69921875 C1.19367187 12.45847656 1.09828125 13.21773438 1 14 C1.99 14 2.98 14 4 14 C4.33 13.34 4.66 12.68 5 12 C5 13.65 5 15.3 5 17 C3.35 17 1.7 17 0 17 C0 11.39 0 5.78 0 0 Z " fill="#F6F2DE" transform="translate(598,492)"/>
<path d="M0 0 C0.12375 0.639375 0.2475 1.27875 0.375 1.9375 C0.684375 2.9584375 0.684375 2.9584375 1 4 C1.66 4.33 2.32 4.66 3 5 C2.67 5.66 2.34 6.32 2 7 C0.6078125 6.505 0.6078125 6.505 -0.8125 6 C-3.92029291 4.85032996 -3.92029291 4.85032996 -7 5 C-4.63707344 2.47411298 -3.33537489 1.11179163 0 0 Z " fill="#D7D2C4" transform="translate(614,465)"/>
<path d="M0 0 C0.33 0.66 0.66 1.32 1 2 C1.99 1.67 2.98 1.34 4 1 C3.60196439 3.88575819 3.20990931 4.82189513 0.9375 6.75 C0.298125 7.1625 -0.34125 7.575 -1 8 C-1.33 7.01 -1.66 6.02 -2 5 C-2.66 4.34 -3.32 3.68 -4 3 C-2.68 2.01 -1.36 1.02 0 0 Z " fill="#F2EADA" transform="translate(586,493)"/>
<path d="M0 0 C1.32 0 2.64 0 4 0 C2.54955729 4.10958767 0.48889248 7.43258745 -2 11 C-2.33 9.68 -2.66 8.36 -3 7 C-2.34 7 -1.68 7 -1 7 C-0.67 4.69 -0.34 2.38 0 0 Z " fill="#8E9618" transform="translate(765,837)"/>
<path d="M0 0 C0.99 0.33 1.98 0.66 3 1 C3.75 2.9375 3.75 2.9375 4 5 C3.67 5.66 3.34 6.32 3 7 C4.32 8.32 5.64 9.64 7 11 C3.82461668 10.65978036 2.97723135 9.97533396 0.75 7.5625 C-1 5 -1 5 -1 3 C-0.67 2.67 -0.34 2.34 0 2 C0 1.34 0 0.68 0 0 Z " fill="#F3ECDD" transform="translate(610,489)"/>
<path d="M0 0 C0.66 0 1.32 0 2 0 C2.70180531 1.4096347 3.38593958 2.82807641 4.0625 4.25 C4.44535156 5.03890625 4.82820313 5.8278125 5.22265625 6.640625 C6.08564091 9.25993522 5.93045933 10.44855176 5 13 C3.36185552 10.54278328 2.38047801 8.65432189 1.375 5.9375 C1.11460937 5.24527344 0.85421875 4.55304687 0.5859375 3.83984375 C0 2 0 2 0 0 Z " fill="#131001" transform="translate(324,816)"/>
<path d="M0 0 C1.43088528 2.86177057 0.59991697 4.93375773 0 8 C-0.66 8 -1.32 8 -2 8 C-2 9.32 -2 10.64 -2 12 C-2.99 12 -3.98 12 -5 12 C-4.54738642 10.56068883 -4.08767021 9.12361001 -3.625 7.6875 C-3.24214844 6.48673828 -3.24214844 6.48673828 -2.8515625 5.26171875 C-2 3 -2 3 0 0 Z " fill="#828919" transform="translate(314,238)"/>
<path d="M0 0 C1.32 0.33 2.64 0.66 4 1 C4.33 2.32 4.66 3.64 5 5 C6.32 5.33 7.64 5.66 9 6 C8.67 7.65 8.34 9.3 8 11 C5.0843836 7.45960866 2.49872182 3.8373228 0 0 Z " fill="#A5AE15" transform="translate(743,237)"/>
<path d="M0 0 C2.875 0.3125 2.875 0.3125 6 1 C6.66 1.99 7.32 2.98 8 4 C5.69 4.33 3.38 4.66 1 5 C1 4.67 1 4.34 1 4 C-1.97 3.505 -1.97 3.505 -5 3 C-5 2.67 -5 2.34 -5 2 C-3.35 2 -1.7 2 0 2 C0 1.34 0 0.68 0 0 Z " fill="#6C6D71" transform="translate(597,314)"/>
<path d="M0 0 C0.66 0 1.32 0 2 0 C2.70180531 1.4096347 3.38593958 2.82807641 4.0625 4.25 C4.44535156 5.03890625 4.82820312 5.8278125 5.22265625 6.640625 C6.08564091 9.25993522 5.93045933 10.44855176 5 13 C2.59185923 9.48812804 1.63370592 7.27343092 2 3 C1.01 3.33 0.02 3.66 -1 4 C-0.67 2.68 -0.34 1.36 0 0 Z " fill="#7F871A" transform="translate(768,243)"/>
<path d="M0 0 C0.99 0.33 1.98 0.66 3 1 C2.23883449 2.15227823 1.46567307 3.2966386 0.6875 4.4375 C0.25824219 5.07558594 -0.17101562 5.71367187 -0.61328125 6.37109375 C-2 8 -2 8 -5 9 C-4.42647107 5.12867972 -2.51295648 2.91827204 0 0 Z " fill="#0E0C09" transform="translate(609,464)"/>
<path d="M0 0 C0.66 0 1.32 0 2 0 C2 0.99 2 1.98 2 3 C2.99 3.33 3.98 3.66 5 4 C6.1875 7.5625 6.1875 7.5625 7 11 C4.0444623 8.24829249 1.88436685 5.58029701 0 2 C0 1.34 0 0.68 0 0 Z " fill="#797E17" transform="translate(312,837)"/>
<path d="M0 0 C1.125 1.75 1.125 1.75 2 4 C1.25 5.875 1.25 5.875 0 8 C-0.68960962 9.99220557 -1.36079057 11.99105606 -2 14 C-2.33 14 -2.66 14 -3 14 C-2.48594831 9.03083364 -1.76615118 4.70973649 0 0 Z " fill="#272804" transform="translate(325,258)"/>
<path d="M0 0 C2.64752004 2.57784846 4.94432065 4.91648098 7 8 C6.01 8 5.02 8 4 8 C4 7.34 4 6.68 4 6 C2.68 6 1.36 6 0 6 C0 4.02 0 2.04 0 0 Z " fill="#242503" transform="translate(738,232)"/>
<path d="M0 0 C0.66 0.66 1.32 1.32 2 2 C1.625 4.125 1.625 4.125 1 6 C0.34 6 -0.32 6 -1 6 C-1.66 7.32 -2.32 8.64 -3 10 C-3.33 9.34 -3.66 8.68 -4 8 C-3.22265625 6.0546875 -3.22265625 6.0546875 -2.0625 3.875 C-1.49208984 2.78832031 -1.49208984 2.78832031 -0.91015625 1.6796875 C-0.60980469 1.12539062 -0.30945313 0.57109375 0 0 Z " fill="#161802" transform="translate(330,248)"/>
<path d="M0 0 C1.65 1.65 3.3 3.3 5 5 C4.67 5.66 4.34 6.32 4 7 C2.68 6.67 1.36 6.34 0 6 C-1.125 2.25 -1.125 2.25 0 0 Z " fill="#848C0F" transform="translate(762,232)"/>
<path d="M0 0 C1.32 1.65 2.64 3.3 4 5 C3.34 6.32 2.68 7.64 2 9 C0.4375 7.3125 0.4375 7.3125 -1 5 C-0.6875 2.25 -0.6875 2.25 0 0 Z " fill="#A4AC15" transform="translate(330,832)"/>
<path d="M0 0 C1.45606519 4.52092968 0.27032841 7.51648796 -1 12 C-1.99 12 -2.98 12 -4 12 C-2.66666667 8 -1.33333333 4 0 0 Z " fill="#8E9715" transform="translate(756,818)"/>
<path d="M0 0 C0.99 0 1.98 0 3 0 C3 1.65 3 3.3 3 5 C2.34 5 1.68 5 1 5 C1.33 6.98 1.66 8.96 2 11 C-0.67927341 6.98108988 -0.15601248 4.75838077 0 0 Z " fill="#1F1F07" transform="translate(322,805)"/>
<path d="M0 0 C0.66 0.33 1.32 0.66 2 1 C1.34 2.98 0.68 4.96 0 7 C-0.33 6.34 -0.66 5.68 -1 5 C-2.65 5.33 -4.3 5.66 -6 6 C-4 4 -2 2 0 0 Z " fill="#777F13" transform="translate(340,210)"/>
<path d="M0 0 C0.66 0.33 1.32 0.66 2 1 C2 1.66 2 2.32 2 3 C-0.3125 5.1875 -0.3125 5.1875 -3 7 C-3.99 6.67 -4.98 6.34 -6 6 C-4.02 4.02 -2.04 2.04 0 0 Z " fill="#35322D" transform="translate(590,496)"/>
<path d="M0 0 C0.33 0.66 0.66 1.32 1 2 C1.33 1.34 1.66 0.68 2 0 C2.99 0 3.98 0 5 0 C5 0.99 5 1.98 5 3 C2.5 4.6875 2.5 4.6875 0 6 C-1 3 -1 3 0 0 Z " fill="#E2DFCF" transform="translate(617,463)"/>
<path d="M0 0 C3.26954202 0.56371414 4.82575883 1.49962266 7 4 C4.36 4 1.72 4 -1 4 C-0.67 2.68 -0.34 1.36 0 0 Z " fill="#151404" transform="translate(725,224)"/>
<path d="M0 0 C4.455 0.99 4.455 0.99 9 2 C9 2.33 9 2.66 9 3 C6.03 3.66 3.06 4.32 0 5 C-0.33 4.01 -0.66 3.02 -1 2 C-0.67 1.34 -0.34 0.68 0 0 Z " fill="#0D0B02" transform="translate(708,217)"/>
<path d="M0 0 C0.99 0 1.98 0 3 0 C3 0.66 3 1.32 3 2 C0.1875 3.5625 0.1875 3.5625 -3 5 C-3.99 4.67 -4.98 4.34 -6 4 C-5.34 3.34 -4.68 2.68 -4 2 C-2.68 2 -1.36 2 0 2 C0 1.34 0 0.68 0 0 Z " fill="#74791E" transform="translate(731,872)"/>
<path d="M0 0 C1.32 0.33 2.64 0.66 4 1 C3.67 2.32 3.34 3.64 3 5 C2.01 5 1.02 5 0 5 C0 3.35 0 1.7 0 0 Z " fill="#090609" transform="translate(599,480)"/>
<path d="M0 0 C3.82097239 0.53069061 6.06171403 1.49701566 9 4 C7.3125 4.8125 7.3125 4.8125 5 5 C2.25 2.5625 2.25 2.5625 0 0 Z " fill="#767A1C" transform="translate(725,203)"/>
<path d="M0 0 C2.31 0.66 4.62 1.32 7 2 C6.67 2.99 6.34 3.98 6 5 C2.83884224 3.63016497 2.0072908 3.0109362 0 0 Z " fill="#7D8113" transform="translate(328,859)"/>
<path d="M0 0 C0 0.66 0 1.32 0 2 C-0.99 2 -1.98 2 -3 2 C-2.67 2.99 -2.34 3.98 -2 5 C-2.99 5.33 -3.98 5.66 -5 6 C-5 5.34 -5 4.68 -5 4 C-5.66 3.67 -6.32 3.34 -7 3 C-2.25 0 -2.25 0 0 0 Z " fill="#9AA01B" transform="translate(727,856)"/>
<path d="M0 0 C0.33 0.99 0.66 1.98 1 3 C-2.01031744 3.93423645 -2.86650268 4.04449911 -6 3 C-3.375 0 -3.375 0 0 0 Z " fill="#CCC8B5" transform="translate(594,469)"/>
<path d="M0 0 C0.66 0.33 1.32 0.66 2 1 C1.01 3.31 0.02 5.62 -1 8 C-1.33 7.34 -1.66 6.68 -2 6 C-2.66 5.67 -3.32 5.34 -4 5 C-2.68 3.35 -1.36 1.7 0 0 Z " fill="#121006" transform="translate(350,226)"/>
<path d="" fill="#0E0F24" transform="translate(0,0)"/>
<path d="" fill="#0C0829" transform="translate(0,0)"/>
<path d="" fill="#090224" transform="translate(0,0)"/>
</svg>
